<?xml version="1.0" encoding="UTF-8" standalone="no"?><!DOCTYPE svg PUBLIC "-//W3C//DTD SVG 1.1//EN" "http://www.w3.org/Graphics/SVG/1.1/DTD/svg11.dtd"><svg width="100%" height="100%" viewBox="0 0 540 540" version="1.1" xmlns="http://www.w3.org/2000/svg" xmlns:xlink="http://www.w3.org/1999/xlink" xml:space="preserve" xmlns:serif="http://www.serif.com/" style="fill-rule:evenodd;clip-rule:evenodd;stroke-linejoin:round;stroke-miterlimit:2;"><path d="M509,150.5l0,239c0,65.954 -53.546,119.5 -119.5,119.5l-239,-0c-65.954,-0 -119.5,-53.546 -119.5,-119.5l0,-239c0,-65.954 53.546,-119.5 119.5,-119.5l239,0c65.954,0 119.5,53.546 119.5,119.5Z" style="fill:#0002ff;"/><path d="M187.211,172.337l-112.284,-0l116.029,-86.074l274.117,-0l-112.284,83.295l0,198.105l112.284,0l-116.029,86.074l-274.117,0l112.284,-83.295l-0,-198.105Z" style="fill:#fff;"/><path d="M156.069,426.926l57.953,-42.99l-0,-238.41l-57.953,-0l43.746,-32.452l184.116,-0l-57.953,42.99l0,238.41l57.953,0l-43.746,32.452l-184.116,0Z" style="fill:url(#_Linear1);"/><defs><linearGradient id="_Linear1" x1="0" y1="0" x2="1" y2="0" gradientUnits="userSpaceOnUse" gradientTransform="matrix(237.632,0,0,317.081,151.184,270)"><stop offset="0" style="stop-color:#001ae1;stop-opacity:1"/><stop offset="1" style="stop-color:#0002ff;stop-opacity:1"/></linearGradient></defs></svg>