<?xml version="1.0" encoding="UTF-8" standalone="no"?><!DOCTYPE svg PUBLIC "-//W3C//DTD SVG 1.1//EN" "http://www.w3.org/Graphics/SVG/1.1/DTD/svg11.dtd"><svg width="100%" height="100%" viewBox="0 0 4000 1080" version="1.1" xmlns="http://www.w3.org/2000/svg" xmlns:xlink="http://www.w3.org/1999/xlink" xml:space="preserve" xmlns:serif="http://www.serif.com/" style="fill-rule:evenodd;clip-rule:evenodd;stroke-linecap:round;stroke-linejoin:round;stroke-miterlimit:1.5;"><path d="M388.646,343.505l-175.404,0l175.404,-142.506l443.667,-0l-175.403,142.506l0,392.99l175.403,-0l-175.403,142.506l-443.668,0l175.404,-142.506l-0,-392.99Zm504.511,509.557l0,-641.33l211.413,0c211.967,0 317.95,104.205 317.95,312.615c0,99.882 -28.923,179.638 -86.77,239.269c-57.847,59.631 -134.907,89.446 -231.18,89.446l-211.413,0Zm134.422,-523.708l-0,406.533l66.586,0c58.264,0 103.972,-18.783 137.127,-56.351c33.155,-37.567 49.732,-88.701 49.732,-153.4c-0,-61.122 -16.439,-109.199 -49.316,-144.232c-32.877,-35.033 -79.002,-52.55 -138.375,-52.55l-65.754,-0Zm746.185,534.889c-85.453,-0 -155.091,-29.89 -208.915,-89.67c-53.824,-59.78 -80.736,-137.673 -80.736,-233.679c-0,-101.372 27.328,-183.364 81.984,-245.977c54.657,-62.612 127.07,-93.918 217.239,-93.918c85.175,-0 154.051,29.964 206.626,89.893c52.576,59.929 78.864,138.94 78.864,237.033c-0,100.776 -27.259,182.023 -81.777,243.741c-54.518,61.718 -125.613,92.577 -213.285,92.577Zm5.826,-538.914c-47.165,-0 -84.62,19.007 -112.364,57.022c-27.745,38.015 -41.617,88.328 -41.617,150.941c0,63.506 13.872,113.745 41.617,150.717c27.744,36.971 64.089,55.456 109.035,55.456c46.333,0 83.094,-17.964 110.284,-53.891c27.189,-35.928 40.784,-85.794 40.784,-149.599c0,-66.488 -13.178,-118.218 -39.536,-155.189c-26.357,-36.972 -62.424,-55.457 -108.203,-55.457Zm743.689,527.733l-355.406,0l0,-641.33l134.422,0l-0,524.155l220.984,0l-0,117.175Zm332.516,11.181c-85.453,-0 -155.091,-29.89 -208.915,-89.67c-53.824,-59.78 -80.736,-137.673 -80.736,-233.679c-0,-101.372 27.328,-183.364 81.984,-245.977c54.657,-62.612 127.07,-93.918 217.239,-93.918c85.175,-0 154.05,29.964 206.626,89.893c52.576,59.929 78.863,138.94 78.863,237.033c0,100.776 -27.258,182.023 -81.776,243.741c-54.518,61.718 -125.613,92.577 -213.285,92.577Zm5.826,-538.914c-47.165,-0 -84.62,19.007 -112.364,57.022c-27.745,38.015 -41.617,88.328 -41.617,150.941c-0,63.506 13.872,113.745 41.617,150.717c27.744,36.971 64.089,55.456 109.035,55.456c46.333,0 83.094,-17.964 110.284,-53.891c27.189,-35.928 40.784,-85.794 40.784,-149.599c0,-66.488 -13.178,-118.218 -39.536,-155.189c-26.357,-36.972 -62.424,-55.457 -108.203,-55.457Zm925.137,527.733l-135.67,0l-245.954,-402.956c-14.427,-23.554 -24.415,-41.294 -29.964,-53.22l-1.665,-0c2.22,22.66 3.329,57.246 3.329,103.758l0,352.418l-126.93,0l-0,-641.33l144.826,0l236.798,390.433c10.82,17.591 20.808,35.033 29.964,52.326l1.664,0c-2.219,-14.907 -3.329,-44.276 -3.329,-88.104l0,-354.655l126.931,0l-0,641.33Z" style="fill:#4042ff;"/><path d="M3931.5,311.25l0,457.5c0,126.251 -102.499,228.75 -228.75,228.75l-3405.5,0c-126.251,0 -228.75,-102.499 -228.75,-228.75l0,-457.5c0,-126.251 102.499,-228.75 228.75,-228.75l3405.5,0c126.251,0 228.75,102.499 228.75,228.75Z" style="fill:none;stroke:#4042ff;stroke-width:100px;"/></svg>